<?xml version="1.0" encoding="utf-8"?>
<!-- Generator: Adobe Illustrator 27.8.1, SVG Export Plug-In . SVG Version: 6.00 Build 0)  -->
<svg version="1.1" id="Layer_1" xmlns="http://www.w3.org/2000/svg" xmlns:xlink="http://www.w3.org/1999/xlink" x="0px" y="0px"
	 viewBox="0 0 647.78 507.81" style="enable-background:new 0 0 647.78 507.81;" xml:space="preserve">
<style type="text/css">
	.st0{fill:#4D4D4D;}
	.st1{fill:none;stroke:#FFFFFF;stroke-width:65;stroke-miterlimit:10;}
	.st2{fill:#009245;stroke:#FFFFFF;stroke-width:65;stroke-miterlimit:10;}
	.st3{fill:#39B54A;}
</style>
<path class="st0" d="M348.77,132.96c-114.3-0.02-198.22,59.78-235.07,80.77c0-69.87,87.49-49.05,87.49-118.92l363.46,32.67"/>
<path class="st0" d="M503.91,288.93c-24.32-13.85-80.01-48.43-155.39-48.45c-75.45-0.01-130.84,34.59-155.17,48.45
	c0-46.12,22.73-38.68,22.73-84.8l258.25,13.69"/>
<path class="st0" d="M427.63,365.21c-12.24-6.97-41.81-18.97-79.75-18.98c-37.98-0.01-68.44,12.65-80.69,19.62
	c0-23.22,2.57-45.38,2.57-68.6h156.16L427.63,365.21z"/>
<path class="st1" d="M94.38,195.1"/>
<path class="st1" d="M175.31,276.03"/>
<path class="st2" d="M254.67,355.39"/>
<path class="st2" d="M438.19,355.39"/>
<path class="st1" d="M91.29,192.01c141.49-141.49,370.89-141.49,512.37,0"/>
<path class="st1" d="M168.86,269.58c98.65-98.65,258.59-98.65,357.24,0"/>
<path class="st1" d="M243.94,344.66c57.19-57.19,149.9-57.19,207.09,0"/>
<g>
	<path class="st3" d="M313.52,460.53c-17.52-17.52-17.16-45.76,0.36-63.28c17.52-17.52,45.76-17.88,63.28-0.36
		c17.88,17.88,17.88,46.48,0.36,64C360,478.4,331.4,478.4,313.52,460.53z"/>
</g>
</svg>
