<?xml version="1.0" encoding="utf-8"?>
<!-- Generator: Adobe Illustrator 27.8.1, SVG Export Plug-In . SVG Version: 6.00 Build 0)  -->
<svg version="1.1" id="Layer_1" xmlns="http://www.w3.org/2000/svg" xmlns:xlink="http://www.w3.org/1999/xlink" x="0px" y="0px"
	 viewBox="0 0 545.5 520.8" style="enable-background:new 0 0 545.5 520.8;" xml:space="preserve">
<style type="text/css">
	.st0{fill:#4D4D4D;}
	.st1{fill:none;stroke:#FFFFFF;stroke-width:65;stroke-miterlimit:10;}
	.st2{fill:#009245;stroke:#FFFFFF;stroke-width:65;stroke-miterlimit:10;}
	.st3{fill:#39B54A;}
</style>
<g>
	<path class="st0" d="M455.5,415.7c-11.2-40.9-28.2-142.4-109-223.2c-80.8-80.8-182.4-97.9-223.3-109.1
		c49.4-49.4,96.5,27.2,146-22.2l233.9,280.1L455.5,415.7z"/>
	<path class="st0" d="M346,412.5c-7.4-27-22.3-90.8-75.6-144.1c-53.3-53.4-117-68.1-144-75.5c32.6-32.6,43.4-11.3,76-43.9
		l172.9,192.3L346,412.5z"/>
	<path class="st0" d="M238.1,412.5c-3.7-13.6-16.1-43-43-69.8c-26.9-26.9-57.3-39.4-70.9-43.2c16.4-16.4,33.9-30.3,50.3-46.7
		l110.4,110.4L238.1,412.5z"/>
	<path class="st1" d="M122.7,56.6"/>
	<path class="st1" d="M480.4,414.2"/>
	<path class="st1" d="M122.7,171"/>
	<path class="st1" d="M366.2,414.5"/>
	<path class="st2" d="M122.7,283.3"/>
	<path class="st2" d="M252.5,413"/>
</g>
<g>
	<path class="st1" d="M122.7,52.2C322.8,52.2,485,214.4,485,414.5"/>
	<path class="st1" d="M122.7,161.9c139.5,0,252.6,113.1,252.6,252.6"/>
	<path class="st1" d="M122.7,268.1c80.9,0,146.4,65.6,146.4,146.4"/>
</g>
<g>
	<path class="st3" d="M90,399.2c0-24.8,20.2-44.5,45-44.5c24.8,0,45,19.7,45,44.5c0,25.3-20.2,45.5-45,45.5
		C110.2,444.7,90,424.5,90,399.2z"/>
</g>
</svg>
